<svg xmlns="http://www.w3.org/2000/svg" width="512" height="512" viewBox="0 0 512 512"><path fill="#DC1E35" d="M512 472c0 22.1-17.9 40-40 40H40c-22.1 0-40-17.9-40-40V40C0 17.9 17.9 0 40 0h432c22.1 0 40 17.9 40 40v432z"/><path fill-rule="evenodd" clip-rule="evenodd" fill="#FFF" d="M48.1 201.4H299l24.6 40.4s8.4 20.4-21.8 11.2L48.1 201.4zM305.5 202.3l16.7 27.5 141.7-27.5zM53.7 207.4l246.7 50.7 28.3 52.5zM318.4 279.9l2 3.7h22.2c.8-1.3 1.6-2.5 2.4-3.7h-26.6zM313.8 271.6l2.3 4.2h32c1.1-1.4 2.2-2.8 3.4-4.2h-37.7zM438.3 212.6c3.6-1.5 5.7-2.3 5.7-2.3l-11.4 2.3h5.7zM335.1 299c.4-.9.7-1.9 1.1-2.8h-9.1l1.5 2.8h6.5zM309.3 263.2l2.3 4.2h43.5c1.3-1.4 2.6-2.8 4-4.2h-49.8zM322.6 287.8l2.3 4.2h13.2l2.1-4.2h-17.6zM329.7 248.3c0 .9-.1 1.4-.1 1.4-.1.5-.2.9-.3 1.4h43.2c1.2-.9 2.3-1.9 3.5-2.8h-46.3zM327.3 255.3c-1.4 1.8-3.3 3-5.4 3.7h41.5c1.4-1.3 2.7-2.5 4.1-3.7h-40.2zM412 216.7l-18.2 3.7h27.4c2.7-1.4 5.3-2.6 7.7-3.7H412zM330.9 303.2l2 3.7c.3-1.2.6-2.5.9-3.7h-2.9zM373.3 224.6l-15.9 3.2h49.9c2-1.1 4-2.2 5.9-3.2h-39.9zM332.3 233l-6.8 1.4c.3.5.6.9.8 1.4H394c1.5-.9 3-1.9 4.5-2.8h-66.2zM328.2 240c.5 1.5.9 2.9 1.1 4.2h52.4l6-4.2h-59.5z"/></svg>